<svg id="Capa_1" data-name="Capa 1" xmlns="http://www.w3.org/2000/svg" viewBox="0 0 54 54">
  <defs>
    <style>
      .cls-1 {
        fill: #fff;
      }
    </style>
  </defs>
  <title>illustrator-white</title>
  <g>
    <path class="cls-1" d="M41.82,0H12.18A12.19,12.19,0,0,0,0,12.18V41.82A12.19,12.19,0,0,0,12.18,54H41.82A12.19,12.19,0,0,0,54,41.82V12.18A12.19,12.19,0,0,0,41.82,0ZM52,41.82A10.18,10.18,0,0,1,41.82,52H12.18A10.19,10.19,0,0,1,2,41.82V12.18A10.2,10.2,0,0,1,12.18,2H41.82A10.19,10.19,0,0,1,52,12.18Z"/>
    <path class="cls-1" d="M19.84,12,11.6,40h3.12l2.64-9h8.32l2.76,9h3.24L23.16,12ZM18.12,28l3.36-11.36L25,28Z"/>
    <path class="cls-1" d="M36.86,11.6a1.6,1.6,0,0,0-1.16.5,1.59,1.59,0,1,0,1.16-.5Z"/>
    <rect class="cls-1" x="35.36" y="19.96" width="2.88" height="20.04"/>
  </g>
</svg>
