<svg id="Capa_1" data-name="Capa 1" xmlns="http://www.w3.org/2000/svg" viewBox="0 0 54 54">
  <defs>
    <style>
      .cls-1 {
        fill: #fff;
      }
    </style>
  </defs>
  <title>photoshop-white</title>
  <g>
    <path class="cls-1" d="M41.82,0H12.18A12.19,12.19,0,0,0,0,12.18V41.82A12.19,12.19,0,0,0,12.18,54H41.82A12.19,12.19,0,0,0,54,41.82V12.18A12.19,12.19,0,0,0,41.82,0ZM52,41.82A10.18,10.18,0,0,1,41.82,52H12.18A10.19,10.19,0,0,1,2,41.82V12.18A10.2,10.2,0,0,1,12.18,2H41.82A10.19,10.19,0,0,1,52,12.18Z"/>
    <path class="cls-1" d="M19.92,12H10.28V40h2.88V30.8h7a7.84,7.84,0,0,0,3.52-.74,6,6,0,0,0,2.2-1.72,7.55,7.55,0,0,0,1.14-2.52,14.15,14.15,0,0,0,.5-2.56c.05-.68.08-1.49.08-2.42a10.11,10.11,0,0,0-1.9-6.4Q23.84,12,19.92,12Zm4.82,10.6a11.13,11.13,0,0,1-.28,1.8,4.9,4.9,0,0,1-.72,1.84,4.34,4.34,0,0,1-1.46,1.2,5,5,0,0,1-2.44.56H13.16V14.8h6.52q5.09,0,5.08,6.08C24.76,21.63,24.75,22.2,24.74,22.6Z"/>
    <path class="cls-1" d="M41.22,29.44c-1-.43-2.11-.81-3.18-1.16A14.09,14.09,0,0,1,35.16,27a2.34,2.34,0,0,1-1.28-2.08,2.39,2.39,0,0,1,1-2,5.07,5.07,0,0,1,3.1-.78,5.27,5.27,0,0,1,3.36,1l.92-2.52-.48-.28a6.84,6.84,0,0,0-1.6-.58,9.28,9.28,0,0,0-2.4-.3q-3.64,0-5.26,1.74A5.43,5.43,0,0,0,30.92,25,4.51,4.51,0,0,0,32.4,28.4a7.35,7.35,0,0,0,2.78,1.76c1,.37,2.1.73,3.14,1.06A8.22,8.22,0,0,1,41,32.58,2.81,2.81,0,0,1,42,34.9a2.49,2.49,0,0,1-1.26,2.24,5.54,5.54,0,0,1-3,.78,5.6,5.6,0,0,1-3-.82,3,3,0,0,1-1.48-2.3l-2.8.12a5.29,5.29,0,0,0,2,4,8.21,8.21,0,0,0,5.42,1.64,7.52,7.52,0,0,0,5.26-1.66A5.16,5.16,0,0,0,45,35a5.58,5.58,0,0,0-1.1-3.6A6.58,6.58,0,0,0,41.22,29.44Z"/>
  </g>
</svg>
