<svg id="Capa_1" data-name="Capa 1" xmlns="http://www.w3.org/2000/svg" viewBox="0 0 54 54">
  <defs>
    <style>
      .cls-1 {
        fill: #fff;
      }
    </style>
  </defs>
  <title>xd-white</title>
  <g>
    <path class="cls-1" d="M41.82,0H12.18A12.2,12.2,0,0,0,0,12.18V41.82A12.2,12.2,0,0,0,12.18,54H41.82A12.2,12.2,0,0,0,54,41.82V12.18A12.2,12.2,0,0,0,41.82,0ZM52,41.82A10.18,10.18,0,0,1,41.82,52H12.18A10.2,10.2,0,0,1,2,41.82V12.18A10.2,10.2,0,0,1,12.18,2H41.82A10.2,10.2,0,0,1,52,12.18Z"/>
    <path class="cls-1" d="M41.16,20.76a7.56,7.56,0,0,0-4.22-1.12,10.68,10.68,0,0,0-4.26.76c-2.27,1-3.41,3-3.4,5.76v7.56a5.71,5.71,0,0,0,3.12,5.56,11.38,11.38,0,0,0,5.28,1.2A47.63,47.63,0,0,0,44,40V12H41.16Zm0,16.72A27.65,27.65,0,0,1,37,37.8a5.81,5.81,0,0,1-3.56-1.08,3.46,3.46,0,0,1-1.32-2.88V26.72a4.55,4.55,0,0,1,1.06-3.1A4.35,4.35,0,0,1,36.6,22.4a9.42,9.42,0,0,1,4.56,1.12Z"/>
    <path class="cls-1" d="M23.49,40.48l-3.34-5.79c-1.36-2.21-2.21-3.65-3-5.16H17c-.74,1.51-1.47,2.91-2.83,5.2l-3.15,5.75H7.17l8-13.25L7.49,14.3h3.92l3.46,6.14c1,1.7,1.71,3,2.41,4.42h.11c.74-1.55,1.4-2.75,2.37-4.42l3.58-6.14h3.88L19.26,27l8.16,13.44Z"/>
  </g>
</svg>
