<svg id="Capa_1" data-name="Capa 1" xmlns="http://www.w3.org/2000/svg" viewBox="0 0 1669.23 522.61">
  <defs>
    <style>
      .cls-1 {
        fill: #fff;
      }
    </style>
  </defs>
  <title>logo-cuadros-white</title>
  <path class="cls-1" d="M490.66,184.06c-5.31,17.88-18.52,31.41-42.36,31.41-32.37,0-49.45-25.77-49.45-57.51,0-30.44,16.75-58.14,49.61-58.14,24.32,0,38.66,13.53,42.36,32.37h-8.69C477,117.53,467.47,107.87,448,107.87c-28,0-39.79,25.61-39.79,49.93,0,24.16,11.6,49.61,40.43,49.61,18.37,0,27.71-9.5,33.34-23.35Z" transform="translate(0)"/>
  <path class="cls-1" d="M570.07,101.43v68.29c0,30,16.91,37.69,32.86,37.69,18.84,0,32.86-7.89,32.86-37.69V101.43h8.86v67.81c0,35.27-18.69,46.23-42,46.23-22.23,0-41.56-12.08-41.56-44.78V101.43Z" transform="translate(0)"/>
  <path class="cls-1" d="M732.11,175.2l-14.34,39h-8.86l41.4-112.75h10.31L803.78,214.2h-9.5l-14.66-39Zm44.61-8.06c-12.56-33.5-19-49.61-21.26-57.18h-.16c-2.74,8.54-10,28.51-20.13,57.18Z" transform="translate(0)"/>
  <path class="cls-1" d="M872.08,101.43h37.37c30.92,0,52.34,21.58,52.34,55.41,0,33.66-20.94,57.34-52.51,57.34h-37.2Zm8.7,104.69H908c29.79,0,44.45-20.94,44.45-48.8,0-24.81-13.21-47.84-44.45-47.84H880.78Z" transform="translate(0)"/>
  <path class="cls-1" d="M1043.78,161.51v52.67h-8.86V101.43h40.43c22.23,0,34,11.92,34,29.63,0,14.34-8.54,23.68-21.1,26.42,11.59,2.74,19.32,10.31,19.32,29.48v4.35c0,7.89-.64,18.52,1.45,22.87h-8.85c-2.1-4.83-1.62-13.85-1.62-23.52v-2.9c0-18.52-5.47-26.25-27.06-26.25Zm0-8.06H1071c19.81,0,29-7.41,29-22.22,0-13.86-9-21.75-26.57-21.75h-29.64Z" transform="translate(0)"/>
  <path class="cls-1" d="M1279.1,157c0,30.76-16.42,58.79-51.22,58.79-31.73,0-50.25-25.61-50.25-58,0-31.89,17.88-58,51.38-58C1259.94,99.82,1279.1,124.14,1279.1,157Zm-92.13.32c0,25.93,14.34,50.42,41.4,50.42,29.15,0,41.39-23.84,41.39-50.58,0-26.26-13.85-49.29-41.07-49.29-29,0-41.69,24-41.69,49.45Z" transform="translate(0)"/>
  <path class="cls-1" d="M1352.55,183.9c3.39,15,13.37,23.84,31.9,23.84,20.61,0,28.5-10.31,28.5-22.56,0-12.72-5.63-20.61-30.44-26.73-23.84-6-34.14-13.69-34.14-30,0-14.82,10.79-28.67,35-28.67,24.8,0,35.27,15.14,36.72,28.83h-9c-2.57-12.08-10.47-20.78-28.19-20.78-16.26,0-25.12,7.57-25.12,20.13s7.41,17.24,28.19,22.39c31.73,7.9,36.4,20.62,36.4,34.15,0,16.59-12.08,30.93-38.18,30.93-28.18,0-38.49-16.43-40.59-31.57Z" transform="translate(0)"/>
  <path class="cls-1" d="M405.62,308.43H443c30.92,0,52.34,21.58,52.34,55.41,0,33.66-20.94,57.34-52.51,57.34h-37.2Zm8.69,104.69h27.23c29.79,0,44.45-20.94,44.45-48.8,0-24.81-13.21-47.84-44.45-47.84H414.31Z" transform="translate(0)"/>
  <path class="cls-1" d="M634.66,365.77h-57.5v47.35h63l-1.29,8.06H568.46V308.43h69.1v8.05h-60.4v41.24h57.5Z" transform="translate(0)"/>
  <path class="cls-1" d="M743.38,421.18,701.5,308.43h9.35l21.9,58.95c6.28,17.07,13.37,35.92,15.79,45.42h.32c2.42-8.37,10.15-28.19,16.43-44.78L788,308.43h9.18L753.69,421.18Z" transform="translate(0)"/>
  <path class="cls-1" d="M930.87,365.77h-57.5v47.35h63l-1.28,8.06H864.67V308.43h69.1v8.05h-60.4v41.24h57.5Z" transform="translate(0)"/>
  <path class="cls-1" d="M1006.89,308.43h8.7V413.12h60.56l-1.61,8.06h-67.65Z" transform="translate(0)"/>
  <path class="cls-1" d="M1233.2,364c0,30.76-16.43,58.79-51.22,58.79-31.73,0-50.26-25.61-50.26-58,0-31.89,17.88-58,51.39-58C1214,306.82,1233.2,331.14,1233.2,364Zm-92.13.32c0,25.93,14.33,50.42,41.39,50.42,29.16,0,41.4-23.84,41.4-50.58,0-26.26-13.86-49.29-41.08-49.29C1153.79,314.87,1141.07,338.87,1141.07,364.32Z" transform="translate(0)"/>
  <path class="cls-1" d="M1306.32,308.43h40.27c20.62,0,34.79,11.43,34.79,31.41,0,20.29-14,32.21-35.92,32.21h-30.28v49.13h-8.86Zm8.86,55.57h31.09c18.2,0,25.77-9.67,25.77-23.84,0-15.14-10-23.68-25.13-23.68h-31.73Z" transform="translate(0)"/>
  <path class="cls-1" d="M1518.78,365.77h-57.5v47.35h63l-1.28,8.06h-70.39V308.43h69.1v8.05h-60.4v41.24h57.5Z" transform="translate(0)"/>
  <path class="cls-1" d="M1603.66,368.51v52.67h-8.86V308.43h40.43c22.23,0,34,11.92,34,29.63,0,14.34-8.54,23.68-21.1,26.42,11.59,2.74,19.33,10.31,19.33,29.48v4.35c0,7.89-.65,18.52,1.45,22.87H1660c-2.1-4.83-1.61-13.85-1.61-23.52v-2.9c0-18.52-5.48-26.25-27.06-26.25Zm0-8.06h27.22c19.81,0,29-7.41,29-22.22,0-13.86-9-21.75-26.58-21.75h-29.64Z" transform="translate(0)"/>
  <path class="cls-1" d="M79.74,281.4a138.3,138.3,0,0,0,11.05,10.05,135.24,135.24,0,0,0,25.88,16.61c2.55,1.26,5.14,2.43,7.79,3.52a131.59,131.59,0,0,0,50.54,10c10.74,0,19.44,9,19.44,20.1,0,10.93-8.43,19.83-18.94,20.1h-1a169.4,169.4,0,0,1-57-10l-.82-.29a172,172,0,0,1-38.41-19.84l-.48-.33Q71.17,326.78,65,321.6a178.43,178.43,0,0,1-20.46-20.13q-2.91-3.35-5.65-6.86-5-6.37-9.42-13.21A182.47,182.47,0,0,1,10,241.2,184.6,184.6,0,0,1,1.07,201a188.89,188.89,0,0,1,0-40.2A184.6,184.6,0,0,1,10,120.6,182.47,182.47,0,0,1,29.47,80.4q4.43-6.84,9.42-13.21A178.69,178.69,0,0,1,65,40.2a159.43,159.43,0,0,1,12.78-9.73A171.4,171.4,0,0,1,116.67,10.3a168.76,168.76,0,0,1,38.89-9.19A166.53,166.53,0,0,1,174.5,0h1c10.5.28,18.94,9.17,18.94,20.1v80.4c0,11.1-8.7,20.1-19.44,20.1a56.28,56.28,0,0,0-19.44,3.4A59.46,59.46,0,0,0,120,160.8a60.45,60.45,0,0,0-2.5,10A62.44,62.44,0,0,0,120,201a60.08,60.08,0,0,0,4.47,10,59,59,0,0,0,31.1,26.75A56.47,56.47,0,0,0,175,241.2a94.73,94.73,0,0,1,58.33,20.1h0a99.57,99.57,0,0,1,19.44,20.1,102.41,102.41,0,0,1,19,50.27q.48,4.95.48,10a103.56,103.56,0,0,1-2,20.1A101.52,101.52,0,0,1,252.78,402a99.14,99.14,0,0,1-19.45,20.11,95.15,95.15,0,0,1-38.89,18.08V481a131.88,131.88,0,0,0,38.89-12.12,136.33,136.33,0,0,0,36.93-26.65c.66-.67,1.31-1.35,2-2A140.75,140.75,0,0,0,298,402a142.84,142.84,0,0,0,11.72-40.2,147.07,147.07,0,0,0,0-40.2,142.45,142.45,0,0,0-23-60.3,139.79,139.79,0,0,0-14.49-18.06c-.65-.69-1.3-1.37-2-2a137.67,137.67,0,0,0-11.05-10,134.45,134.45,0,0,0-25.88-16.61c-2.55-1.26-5.14-2.44-7.79-3.53A132.25,132.25,0,0,0,175,201c-10.74,0-19.44-9-19.44-20.1,0-10.92,8.43-19.82,18.94-20.09h1a166.52,166.52,0,0,1,18.94,1.1,168.73,168.73,0,0,1,38.07,8.89l.82.3a171,171,0,0,1,38.41,19.84l.48.33q6.61,4.56,12.78,9.73a178.51,178.51,0,0,1,20.46,20.14q2.91,3.35,5.65,6.85,5,6.38,9.42,13.21A182.47,182.47,0,0,1,340,281.4a185.1,185.1,0,0,1,8.89,40.2,188.89,188.89,0,0,1,0,40.2,183.79,183.79,0,0,1-28.4,80.41q-4.42,6.82-9.42,13.21a179.73,179.73,0,0,1-26.11,27q-6.16,5.16-12.78,9.73a171.8,171.8,0,0,1-38.89,20.17,168.76,168.76,0,0,1-38.89,9.19,166.52,166.52,0,0,1-18.94,1.1h-1c-10.51-.27-18.94-9.17-18.94-20.09V422.1c0-11.09,8.7-20.1,19.44-20.1a56.55,56.55,0,0,0,19.44-3.43A59.45,59.45,0,0,0,230,361.8a60.45,60.45,0,0,0,2.5-10l.82-.29V341.7A61.89,61.89,0,0,0,230,321.6a60.08,60.08,0,0,0-4.47-10,59,59,0,0,0-31.1-26.74A56.24,56.24,0,0,0,175,281.4a94.58,94.58,0,0,1-58.33-20.09h0A100.41,100.41,0,0,1,90.8,231.17,102,102,0,0,1,79.73,201a100.32,100.32,0,0,1-1.47-10.06c-.32-3.33-.48-6.67-.48-10a103.56,103.56,0,0,1,2-20.1,101.79,101.79,0,0,1,17.49-40.2,99.09,99.09,0,0,1,19.45-20.1,95.15,95.15,0,0,1,38.89-18.08V41.62a132.19,132.19,0,0,0-38.89,12.13,136,136,0,0,0-37,26.65c-.66.67-1.31,1.35-2,2A141,141,0,0,0,52,120.6a142.84,142.84,0,0,0-11.72,40.2,147.07,147.07,0,0,0,0,40.2A143.5,143.5,0,0,0,52,241.2a141.23,141.23,0,0,0,25.79,38.17Z" transform="translate(0)"/>
</svg>
