<svg xmlns="http://www.w3.org/2000/svg" viewBox="0 0 720.88 102.49"><defs><style>.cls-1{fill:#fff;}</style></defs><title>elite-sports-full-logo</title><g id="Capa_2" data-name="Capa 2"><g id="Layer_1" data-name="Layer 1"><path class="cls-1" d="M99.45,37.79a48.72,48.72,0,0,0-17.9-22.26c-8-5.57-17.18-7.74-26.37-7.74a43.63,43.63,0,0,0-29,11.61A14.4,14.4,0,0,1,23,21.58c-.48.24-.24-.25-.24-.49C27.6,11.41,37.28,5.61,47.67,3c19.12-4.84,39.44,2.9,51.54,17.9A53.94,53.94,0,0,0,51.06.29,49.84,49.84,0,0,0,32,6.82c-13.06,7.5-22,20.8-23.23,35.8a44.92,44.92,0,0,0,4.6,23.71C17.44,74.07,23.48,79.64,31,84.72c.24.24.24.48.49.73-6.78,0-12.34-4.85-17.17-9.2-7.75-7.74-11.86-18.14-12.83-29-1-16,5.81-31.45,17.66-42.34C9.45,13.35,2.44,24.72.5,38A52.31,52.31,0,0,0,3.65,64.64c6.53,16.45,22.25,29,40.15,30A46.44,46.44,0,0,0,62,92.22a72.24,72.24,0,0,0,7.5-3.63c3.87-2.18,6.78-5.08,10.4-7.5h.49c-1.69,5.08-5.57,8.47-9.92,11.62-9.68,7-20.81,9.43-32.42,8A54.39,54.39,0,0,1,12.84,90.52a60.53,60.53,0,0,1-8.95-8.7,54.36,54.36,0,0,0,33.63,19.83A48.6,48.6,0,0,0,88.08,79.16,42.65,42.65,0,0,0,94.37,59.8a43,43,0,0,0-17.9-38.95,36.47,36.47,0,0,1-4.85-3.63c1-.73,2.19,0,3.15.24,5.57,1.7,9.92,5.09,14,9a38.26,38.26,0,0,1,6,8,43.23,43.23,0,0,1,6.78,20.81A53.12,53.12,0,0,1,84,97.54a54,54,0,0,0,18.63-32.9C104.05,55.44,102.6,46.49,99.45,37.79ZM81.14,51.24A29.56,29.56,0,1,1,51.58,21.68,29.55,29.55,0,0,1,81.14,51.24Z"/><path class="cls-1" d="M140.66,41a7.27,7.27,0,0,0-3.7.82,6.72,6.72,0,0,0-3.33,4.58,12.4,12.4,0,0,0-.3,2.58c0,.79.1,5.65.3,6.58A6.72,6.72,0,0,0,137,60.18a7.27,7.27,0,0,0,3.7.82h36.05a3.07,3.07,0,0,1,2.23.92,3.18,3.18,0,0,1,0,4.45,3.06,3.06,0,0,1-2.23.91H138.57a8.86,8.86,0,0,1-4.78-1.3,12.68,12.68,0,0,1-3.56-3.37A15.77,15.77,0,0,1,128,58c-.53-1.7-.79-7.35-.79-9a16.2,16.2,0,0,1,.82-5,15.27,15.27,0,0,1,2.39-4.58,13,13,0,0,1,3.79-3.37,9.72,9.72,0,0,1,5-1.31h37.49a3.11,3.11,0,0,1,3.14,3.14,3,3,0,0,1-.91,2.22,3.07,3.07,0,0,1-2.23.92Zm35.53,7.76A3.14,3.14,0,0,1,174,54.16H141.38A3.14,3.14,0,0,1,138.24,51a3.14,3.14,0,0,1,3.14-3.14H174A3,3,0,0,1,176.19,48.8Z"/><path class="cls-1" d="M328.27,41a7.27,7.27,0,0,0-3.7.82,6.93,6.93,0,0,0-2.22,2,7,7,0,0,0-1.11,2.59,12.4,12.4,0,0,0-.3,2.58c0,.79.1,5.65.3,6.58a7,7,0,0,0,1.11,2.59,6.82,6.82,0,0,0,2.22,2,7.27,7.27,0,0,0,3.7.82h36.05a3,3,0,0,1,2.23.92,3.14,3.14,0,0,1-2.23,5.36H326.18A8.86,8.86,0,0,1,321.4,66a12.68,12.68,0,0,1-3.56-3.37A16,16,0,0,1,315.58,58c-.52-1.7-.79-7.35-.79-9a16.2,16.2,0,0,1,.82-5A15.27,15.27,0,0,1,318,39.44a13,13,0,0,1,3.79-3.37,9.72,9.72,0,0,1,5-1.31h37.49a3.14,3.14,0,1,1,0,6.28ZM363.8,48.8a3.14,3.14,0,0,1-2.23,5.36H329A3.14,3.14,0,0,1,325.85,51,3.14,3.14,0,0,1,329,47.88h32.58A3,3,0,0,1,363.8,48.8Z"/><path class="cls-1" d="M192.15,66.6A9,9,0,0,1,187.38,62a8,8,0,0,1-.72-3.4V37.9A3.13,3.13,0,0,1,192,35.67a3,3,0,0,1,.95,2.23V58.58a2.27,2.27,0,0,0,.75,1.7,2.43,2.43,0,0,0,1.73.72h39.26a3,3,0,0,1,2.22.92,3.14,3.14,0,0,1-2.22,5.36H195.62A8.84,8.84,0,0,1,192.15,66.6Z"/><path class="cls-1" d="M250,66.37a3.15,3.15,0,0,1-5.37-2.23V37.9a3.12,3.12,0,0,1,3.15-3.14,3,3,0,0,1,2.22.91,3,3,0,0,1,.92,2.23V64.14A3,3,0,0,1,250,66.37Z"/><path class="cls-1" d="M305.86,34.76A3.11,3.11,0,0,1,309,37.9a2.91,2.91,0,0,1-.85,2.12,3.23,3.23,0,0,1-2,1H293a6.73,6.73,0,0,0-3.23,1,6.23,6.23,0,0,0-2,2,7.55,7.55,0,0,0-1,2.55A13,13,0,0,0,286.5,49V64.14a3.14,3.14,0,1,1-6.28,0V49a16.56,16.56,0,0,1,.52-4.09A15.48,15.48,0,0,1,282.31,41H260.85a3.14,3.14,0,1,1,0-6.28Z"/><path class="cls-1" d="M409.86,53.85a9.82,9.82,0,0,1-5.1-5.1,9.71,9.71,0,0,1,0-7.53,9.73,9.73,0,0,1,5.1-5.1,9.22,9.22,0,0,1,3.76-.76h43.92a3.48,3.48,0,1,1,0,7H413.48a2.73,2.73,0,0,0-1.92.76,2.44,2.44,0,0,0-.83,1.91,2.48,2.48,0,0,0,.83,1.88,2.65,2.65,0,0,0,1.92.8h40a9.47,9.47,0,0,1,3.79.76,9.52,9.52,0,0,1,5.14,5.14,9.47,9.47,0,0,1,.76,3.79,9.24,9.24,0,0,1-.76,3.77,10,10,0,0,1-2.06,3,9.36,9.36,0,0,1-3.08,2,10,10,0,0,1-3.79.73H409.64a3.48,3.48,0,1,1,0-6.95h44.14a2.64,2.64,0,0,0,1.88-.76,2.46,2.46,0,0,0,.79-1.85,2.65,2.65,0,0,0-.79-2,2.59,2.59,0,0,0-1.88-.79H413.62A9.39,9.39,0,0,1,409.86,53.85Z"/><path class="cls-1" d="M517.22,35.36a9.48,9.48,0,0,1,3.8.76,10.16,10.16,0,0,1,3.11,2.06,9.46,9.46,0,0,1,0,13.6A10.19,10.19,0,0,1,521,53.85a9.66,9.66,0,0,1-3.8.76H477.36v8.82a3.27,3.27,0,0,1-1.05,2.46,3.38,3.38,0,0,1-2.42,1,3.48,3.48,0,0,1-3.48-3.48V38.83a3.47,3.47,0,0,1,3.48-3.47Zm-39.86,7v5.35h40.15a2.73,2.73,0,0,0,1.92-.76,2.46,2.46,0,0,0,.83-1.92,2.5,2.5,0,0,0-.83-1.88,2.68,2.68,0,0,0-1.92-.79Z"/><path class="cls-1" d="M593.12,51.13a17.66,17.66,0,0,1-.91,5.54,16.85,16.85,0,0,1-2.64,5.06,14.51,14.51,0,0,1-4.19,3.73,10.83,10.83,0,0,1-5.57,1.45h-33a10.63,10.63,0,0,1-5.28-1.63,14.42,14.42,0,0,1-3.94-3.73,17.18,17.18,0,0,1-2.5-5,18.2,18.2,0,0,1-.86-5.43,17.92,17.92,0,0,1,.9-5.53,16.78,16.78,0,0,1,2.64-5.07,14.37,14.37,0,0,1,4.2-3.72,10.71,10.71,0,0,1,5.57-1.45h33A10.56,10.56,0,0,1,585.81,37a14.53,14.53,0,0,1,3.94,3.72,17.24,17.24,0,0,1,2.5,5A17.89,17.89,0,0,1,593.12,51.13Zm-10.78,7.93A7.4,7.4,0,0,0,586.06,54a13.88,13.88,0,0,0,.33-2.86,13.72,13.72,0,0,0-.33-2.85,7.52,7.52,0,0,0-1.23-2.86,7.37,7.37,0,0,0-2.49-2.21,8.17,8.17,0,0,0-4.05-.9H549.06a8.13,8.13,0,0,0-4.09.9,7.45,7.45,0,0,0-2.46,2.21,7.84,7.84,0,0,0-1.23,2.86,13.72,13.72,0,0,0-.33,2.85,13.88,13.88,0,0,0,.33,2.86,7.84,7.84,0,0,0,1.23,2.86A7.56,7.56,0,0,0,545,59.06a8.13,8.13,0,0,0,4.09.9h29.23A8.17,8.17,0,0,0,582.34,59.06Z"/><path class="cls-1" d="M656.93,63.43a3.48,3.48,0,0,1-3.48,3.48,2.92,2.92,0,0,1-1.3-.29,5.54,5.54,0,0,1-1.08-.73,7,7,0,0,1-.65-.72,27.82,27.82,0,0,0-6.12-5.79,25.52,25.52,0,0,0-6.62-3.18,31.06,31.06,0,0,0-7.34-1.34q-3.87-.26-8.28-.25H607.3v8.82a3.27,3.27,0,0,1-1,2.46,3.46,3.46,0,0,1-5.9-2.46V44.84a9.14,9.14,0,0,1,.8-3.91,10,10,0,0,1,2-3A9,9,0,0,1,606,36.05a8,8,0,0,1,3.19-.69h37.76a9.78,9.78,0,0,1,3.84.76A10.62,10.62,0,0,1,654,38.18a9.66,9.66,0,0,1,2.17,3,8.93,8.93,0,0,1,.8,3.76A3.48,3.48,0,1,1,650,45a2.4,2.4,0,0,0-.76-1.81,3.12,3.12,0,0,0-1.77-.86H609.54a2.28,2.28,0,0,0-1.52.47,1.89,1.89,0,0,0-.72,1.12v3.76h14.76a83.44,83.44,0,0,1,11.5.72,41.61,41.61,0,0,1,9.3,2.36A28.27,28.27,0,0,1,650.31,55a29.24,29.24,0,0,1,5.89,6.48A3.14,3.14,0,0,1,656.93,63.43Z"/><path class="cls-1" d="M717.41,35.36a3.45,3.45,0,0,1,3.47,3.47,3.24,3.24,0,0,1-.94,2.35,3.56,3.56,0,0,1-2.24,1.13H703.16a7.31,7.31,0,0,0-3.58,1,6.83,6.83,0,0,0-2.21,2.2,8.57,8.57,0,0,0-1.09,2.82,15.15,15.15,0,0,0-.29,2.75v12.3a3.47,3.47,0,0,1-3.47,3.48,3.47,3.47,0,0,1-3.47-3.48V51.13a18.14,18.14,0,0,1,.58-4.52,16.92,16.92,0,0,1,1.73-4.3H667.63a3.48,3.48,0,1,1,0-7Z"/><path class="cls-1" d="M412.45,76.62a7.16,7.16,0,0,1,4.18,1.29.89.89,0,0,1,.2.5v0c0,.4-.26.64-.78.73a10.6,10.6,0,0,1-1.49-.65,4.75,4.75,0,0,0-1.73-.34h-.61a5.69,5.69,0,0,0-4.11,2.07,6,6,0,0,0-1.27,3.56V84a5.68,5.68,0,0,0,2.77,4.87,5.83,5.83,0,0,0,2.88.81h.15a5.87,5.87,0,0,0,2.85-.77V85.4h-2.78c-.48-.08-.72-.33-.72-.73v0c.08-.49.32-.73.72-.73h3.58c.38,0,.61.24.69.73v4.25c0,.62-.15,1-.46,1.16a7.6,7.6,0,0,1-3.81,1.15h-.22a7.25,7.25,0,0,1-6-3.34,7.47,7.47,0,0,1-1.15-4,7.27,7.27,0,0,1,3.26-6.07A7.39,7.39,0,0,1,412.45,76.62Z"/><path class="cls-1" d="M444.54,76.62A7.39,7.39,0,0,1,450.71,80,7.78,7.78,0,0,1,451.82,84a7.28,7.28,0,0,1-7.21,7.25h-.15A7.26,7.26,0,0,1,440.32,78,7.29,7.29,0,0,1,444.54,76.62ZM438.75,84a5.73,5.73,0,0,0,5.71,5.71h.2a5.66,5.66,0,0,0,4.6-2.41,5.89,5.89,0,0,0,1.07-3.38,5.66,5.66,0,0,0-2.87-5,5.83,5.83,0,0,0-2.92-.81A5.8,5.8,0,0,0,438.75,84Z"/><path class="cls-1" d="M477.57,76.7c.47,0,.81.47,1,1.41q4.61,12,4.65,12.29v.11q0,.57-.72.69h0c-.45,0-.77-.44-1-1.3l-1.71-4.46h-4.47L473.27,91a1,1,0,0,1-.54.24h-.08q-.72-.14-.72-.72v0l1.3-3.52c2.26-5.91,3.5-9.19,3.69-9.84A.92.92,0,0,1,477.57,76.7Zm0,2.9L476,84h3.28v0l-1.64-4.31Z"/><path class="cls-1" d="M504,76.65h.15q.69.13.69.6V89.7h6.27c.41,0,.66.27.73.81-.13.46-.38.69-.73.69h-7c-.39,0-.63-.26-.73-.77V77.49C503.41,76.93,503.63,76.65,504,76.65Z"/><path class="cls-1" d="M533.23,76.63h0c.49.09.73.32.73.7V84q7.11-7.11,7.17-7.1l.28,0h.07q.69.14.69.69v.12c0,.25-.27.6-.8,1l-4.72,4.75,5.41,6.7,0,.23v.12c0,.38-.24.6-.72.69h0c-.31,0-.73-.4-1.27-1.19l-4.52-5.48L534,86.1v4.41c0,.38-.24.61-.73.69h0c-.39,0-.63-.26-.73-.76v-13C532.6,76.89,532.84,76.63,533.23,76.63Z"/><path class="cls-1" d="M563.4,76.55l.19,0h7.56l.15,0c.44,0,.7.28.77.85a.79.79,0,0,1-.84.7h-7.06v5.2h4.62l.55,0c.34,0,.57.25.69.77,0,.34-.21.59-.62.77l-.77,0h-4.47v4.93h7.24c.36,0,.58.27.66.82q-.21.69-.69.69h-8c-.49-.09-.73-.33-.73-.73V77.33c.07-.49.32-.74.73-.74Z"/><path class="cls-1" d="M593.37,76.55l.19,0h7.56l.15,0c.44,0,.7.28.77.85a.79.79,0,0,1-.84.7h-7.06v5.2h4.62l.55,0c.35,0,.58.25.69.77,0,.34-.2.59-.62.77l-.77,0h-4.47v4.93h7.24c.36,0,.58.27.66.82q-.19.69-.69.69h-8c-.49-.09-.73-.33-.73-.73V77.33c.07-.49.32-.74.73-.74Z"/><path class="cls-1" d="M623.09,76.59h3.51a4.2,4.2,0,0,1,3.51,2.13,4.55,4.55,0,0,1,.53,2V81a4.22,4.22,0,0,1-4,4.12h-2.66v5.44c0,.37-.24.6-.73.69h0c-.39,0-.64-.26-.73-.77v-13C622.5,76.88,622.72,76.59,623.09,76.59Zm.85,1.51v5.47h2.39A2.67,2.67,0,0,0,629,81.72a2.5,2.5,0,0,0,.15-.92,2.65,2.65,0,0,0-1.74-2.51,2.33,2.33,0,0,0-1-.19Z"/><path class="cls-1" d="M652,76.49l.2,0h1.44l.15,0c.52.11.77.37.77.77s-.33.78-.73.78h-.16V89.68h.23q.51,0,.66.75v0c-.08.48-.33.73-.73.73H652c-.48-.09-.73-.33-.73-.73v0q.15-.75.66-.75h.24V78H652c-.42,0-.67-.27-.73-.82v0C651.22,76.87,651.47,76.63,652,76.49Z"/><path class="cls-1" d="M676,76.67h.15c.32,0,.6.25.84.76s3.16,4,8.34,10.67c0,0,.08,0,.08.11l0,0h0V77.36q.13-.69.69-.69h.11q.57,0,.69.72v13c0,.42-.26.67-.8.76-.29,0-.74-.45-1.34-1.34l-8-10.21V90.47c0,.38-.24.6-.73.69h0c-.39,0-.64-.26-.73-.76V77.51C675.4,77,675.61,76.67,676,76.67Z"/><path class="cls-1" d="M714.79,76.62A7.19,7.19,0,0,1,719,77.91a.87.87,0,0,1,.19.5v0c0,.4-.26.64-.77.73a10,10,0,0,1-1.49-.65,4.83,4.83,0,0,0-1.73-.34h-.62a5.66,5.66,0,0,0-4.1,2.07,6,6,0,0,0-1.27,3.56V84A5.69,5.69,0,0,0,712,88.85a5.83,5.83,0,0,0,2.88.81H715a5.87,5.87,0,0,0,2.84-.77V85.4h-2.77c-.48-.08-.72-.33-.72-.73v0c.08-.49.32-.73.72-.73h3.57c.38,0,.61.24.69.73v4.25c0,.62-.15,1-.45,1.16a7.6,7.6,0,0,1-3.81,1.15h-.23a7.25,7.25,0,0,1-6-3.34,7.56,7.56,0,0,1-1.15-4,7.27,7.27,0,0,1,3.26-6.07A7.42,7.42,0,0,1,714.79,76.62Z"/></g></g></svg>